<svg id="Layer_1" data-name="Layer 1" xmlns="http://www.w3.org/2000/svg" viewBox="0 0 283.66 251.41"><defs><style>.cls-1{fill:none;stroke:#fff;stroke-linecap:round;stroke-miterlimit:10;stroke-width:7px;}</style></defs><title>Artboard 1</title><line class="cls-1" x1="241.11" y1="106.84" x2="241.11" y2="144.57"/><line class="cls-1" x1="229.41" y1="98.19" x2="229.41" y2="153.19"/><line class="cls-1" x1="217.73" y1="79.17" x2="217.73" y2="172.22"/><line class="cls-1" x1="206.06" y1="88.32" x2="206.06" y2="163.09"/><line class="cls-1" x1="194.38" y1="81.37" x2="194.38" y2="170.04"/><line class="cls-1" x1="182.71" y1="88.32" x2="182.71" y2="163.09"/><line class="cls-1" x1="171.03" y1="63.04" x2="171.03" y2="188.37"/><line class="cls-1" x1="159.36" y1="67.04" x2="159.36" y2="184.34"/><line class="cls-1" x1="147.66" y1="48.62" x2="147.66" y2="202.79"/><line class="cls-1" x1="135.98" y1="68.94" x2="135.98" y2="182.47"/><line class="cls-1" x1="124.31" y1="60.14" x2="124.31" y2="191.24"/><line class="cls-1" x1="112.63" y1="77.89" x2="112.63" y2="173.52"/><line class="cls-1" x1="100.96" y1="88.32" x2="100.96" y2="163.09"/><line class="cls-1" x1="89.28" y1="88.32" x2="89.28" y2="163.09"/><line class="cls-1" x1="77.61" y1="81.27" x2="77.61" y2="170.14"/><line class="cls-1" x1="65.93" y1="98.19" x2="65.93" y2="153.19"/><line class="cls-1" x1="54.23" y1="106.84" x2="54.23" y2="144.57"/><line class="cls-1" x1="42.56" y1="106.84" x2="42.56" y2="144.57"/><line class="cls-1" x1="252.78" y1="116.72" x2="252.78" y2="134.69"/><line class="cls-1" x1="30.88" y1="117.52" x2="30.88" y2="133.89"/></svg>